<?xml version="1.0" encoding="UTF-8"?>
<svg width="128pt" height="128pt" version="1.1" viewBox="0 0 128 128" xmlns="http://www.w3.org/2000/svg">
 <path d="m75.574 49.789c0.98828-1.9766 0.19141-4.3789-1.7852-5.3633-1.9805-0.98828-4.3789-0.19141-5.3711 1.7852l-16 32c-0.98438 1.9805-0.18359 4.3789 1.7891 5.3711 1.9766 0.98438 4.3789 0.18359 5.3633-1.7891z" fill="#fff"/>
 <path d="m18.344 64 18.824 18.832c1.5664 1.5586 4.0938 1.5586 5.6602 0 1.5586-1.5664 1.5586-4.0938 0-5.6602l-13.176-13.168 13.176-13.168c1.5586-1.5664 1.5586-4.0938 0-5.6602-1.5664-1.5586-4.0938-1.5586-5.6602 0z" fill="#fff"/>
 <path d="m109.66 64-18.824 18.832c-1.5664 1.5586-4.0938 1.5586-5.6602 0-1.5586-1.5664-1.5586-4.0938 0-5.6602l13.168-13.168-13.168-13.168c-1.5586-1.5664-1.5586-4.0938 0-5.6602 1.5664-1.5586 4.0938-1.5586 5.6602 0z" fill="#fff"/>
</svg>
