<?xml version="1.0" encoding="UTF-8"?>
<svg width="128pt" height="128pt" version="1.1" viewBox="0 0 128 128" xmlns="http://www.w3.org/2000/svg">
 <path d="m33.281 107.52h61.441c7.0391 0 12.801-5.7617 12.801-12.801v-25.344c0-2.1758-1.6641-3.8398-3.8398-3.8398-2.1758 0-3.8398 1.6641-3.8398 3.8398v25.344c0 2.8164-2.3047 5.1211-5.1211 5.1211h-61.441c-2.8164 0-5.1211-2.3047-5.1211-5.1211v-61.441c0-2.8164 2.3047-5.1211 5.1211-5.1211h28.16c2.1758 0 3.8398-1.6641 3.8398-3.8398 0-2.1758-1.6641-3.8398-3.8398-3.8398h-28.16c-7.0391 0-12.801 5.7617-12.801 12.801v61.441c0 7.0391 5.7617 12.801 12.801 12.801z" fill="#fff"/>
 <path d="m80.254 28.16h14.211l-29.953 29.949c-1.5352 1.5352-1.5352 3.9688 0 5.375 0.76953 0.76953 1.7891 1.1484 2.6914 1.1484 0.89453 0 1.9219-0.38672 2.6914-1.1484l29.949-29.949v14.211c0 2.1758 1.6641 3.8398 3.8398 3.8398 2.1758 0 3.8398-1.6641 3.8398-3.8398v-23.426c0-0.25391 0-0.51172-0.12891-0.76953 0-0.12891-0.12891-0.25391-0.12891-0.38672 0-0.12891-0.12891-0.25391-0.12891-0.38672 0-0.12891-0.12891-0.25391-0.25391-0.38672 0-0.12891-0.12891-0.25391-0.12891-0.25391-0.25391-0.38672-0.64062-0.76953-1.0234-1.0234-0.12891 0-0.25391-0.12891-0.25391-0.12891-0.12891-0.12891-0.25391-0.12891-0.38672-0.25391-0.12891 0-0.25391-0.12891-0.38672-0.12891-0.12891 0-0.25391-0.12891-0.38672-0.12891-0.12109 0.011719-0.375 0.011719-0.62891 0.011719h-23.426c-2.1758 0-3.8398 1.6641-3.8398 3.8398s1.6641 3.8398 3.8398 3.8398z" fill="#fff"/>
</svg>
